<?xml version="1.0" encoding="UTF-8"?>
<!-- Generator: Adobe Illustrator 16.0.0, SVG Export Plug-In . SVG Version: 6.00 Build 0)  -->
<!DOCTYPE svg PUBLIC "-//W3C//DTD SVG 1.1//EN" "http://www.w3.org/Graphics/SVG/1.1/DTD/svg11.dtd">
<svg version="1.1" id="Layer_1" xmlns="http://www.w3.org/2000/svg" xmlns:xlink="http://www.w3.org/1999/xlink" x="0px" y="0px" width="305px" height="62px" viewBox="0 0 305 62" enable-background="new 0 0 305 62" xml:space="preserve">
<g id="Layer_1_1_">
	<g>
		<rect x="73.16" y="0.387" fill="#fff" width="0.23" height="51.439"/>
		<path fill="#fff" d="M17.557,3.022c0.712-1.341-0.301-2.897-0.301-2.897s-0.401,1.45-2.534,1.345v2.696    C14.722,4.166,16.854,4.371,17.557,3.022"/>
		<path fill="#fff" d="M6.643,10.902c0,0-1.093-1.343-2.523-0.817c-1.424,0.524-1.366,1.105-2.051,1.286    c-0.644,0.159-1.67,0.07-2.003-0.223c0.318,0.333,1.78,1.746,3.199,0.866C4.868,11.012,5.097,10.258,6.643,10.902"/>
		<path fill="#fff" d="M8.467,47.3c0.865-0.114,1.615,0.438,1.615,0.438s0.561-0.066,1.63-2.045    c1.064-1.984,1.141-3.125,1.18-4.346c0.038-1.229-0.998-3.438-0.998-3.438c-1.021-0.688-3.003-2.968-3.003-2.968    c-0.374,1.053-0.542,0.759-0.042,3.271c0.489,2.521,1.447,2.368,1.834,4.97C11.061,45.764,8.467,47.3,8.467,47.3"/>
		<path fill="#fff" d="M6.96,48.286c0,0-4.382,0.202-4.415,3.438c0,0,1.18,0.151,3.386,0.151    C5.93,51.879,4.749,49.889,6.96,48.286"/>
		<path fill="#fff" d="M13.714,7.971c-0.911,0.105-1.521,0.313-1.927-0.101c-0.407-0.417-0.508-0.724-1.016-0.724    c-0.51,0-1.007-0.11-1.007-0.11S9.96,6.839,10.88,6.421c0,0,2.02,0.2,2.835,0.309c0.81,0.11,1.113,0.21,1.113,0.21    S14.62,7.871,13.714,7.971 M54.875,41.895c0.097-0.517,1.644-1.056,1.644-1.056s-0.491-1.464-0.998-1.884    c-0.506-0.407-1.464-0.064-2.066-0.686c-0.613-0.61-2.831-1.648-3.143-6.938c-0.304-5.28-0.159-5.042-0.159-5.042    s5.429-3.139,5.229-9.458c-0.208-6.313-7.797-5.793-10.438-3.929c-2.63,1.864-9.011,5.171-11.142-0.729    c-0.707-1.753,2.643-2.696,2.643-2.696s1.816,0.108,2.831-0.818c1.011-0.939,0.4-1.14,1.209-1.45    c0.813-0.316,1.626-0.11,2.645-1.142c1.017-1.033,1.313-3,1.313-3s-0.915,1.548-2.128,1.449c-1.213-0.106-3.138-1.247-4.56-0.83    c-1.421,0.417-1.924,0.93-2.534,1.968c-0.6,1.037-0.507,1.344-1.215,1.865c-0.707,0.511-5.062,6.523,2.024,9.625    c4.667,1.448,8.61-1.753,9.629-2.378c1.008-0.622,2.021-1.247,3.949-1.247c1.927,0,3.953,1.348,4.053,3.208    c0.097,1.864-1.222,4.25-4.157,4.871c-0.605,0-1.615,0.31-1.615,0.31s-1.721-2.273-9.225-0.621    c-7.485,1.658-15.088,2.693-17.014-3.212c-0.506-5.276,3.406,0.573,3.406,0.573s-0.122-5.227-1.784-5.227    c-0.929,0-2.026-0.828-2.026-0.828s0.195-1.038,0.712-1.038c0.5,0,1.813,1.462,1.813,1.462s0.396-3.971-1.126-4.904    c-0.814-0.503-1.191-1.063-1.358-1.461c0.567-0.09,1.235-0.273,1.685-0.689c1.01-0.927,1.51-1.971,1.615-3.105    c0.105-1.138-0.3-0.514-1.01-0.103c-0.716,0.411-2.027,0.62-3.037,0.62c-1.022,0-2.133-0.421-2.133-0.421    s-0.701,0.939-1.515,1.151c-0.81,0.196-2.736,0.099-4.154,0C11.32,3.996,10.509,3.274,9.5,3.583    C8.479,3.897,8.176,4.621,6.867,4.93c-1.318,0.311-1.828,0-2.743-0.104c-0.91-0.103-2.021-0.103-2.227,0.621    c-0.2,0.72-0.502,1.656-0.2,2.587c0.302,0.929,0.505,1.238,2.027,1.143c1.519-0.099,3.233,0,3.948,0.923    c0.708,0.942,0.708,1.975,0.502,2.59c-0.206,0.633-1.52,0.395-2.221,0.289c-0.712-0.104-1.725-0.518-2.128,0.206    c-0.411,0.725-0.813,3.004,0.604,2.482c1.422-0.511,5.07-0.271,5.57-0.271h0.509c0,0-5.169,3.856-5.07,8.718    c0,7.354,6.486,12.093,6.486,12.093s-1.107-3.418-0.909-6.424c0.201-3.004,1.62-4.346,1.62-4.346s-1.112,3.411-0.103,7.97    c1.017,4.556,2.234,8.284,1.017,11.177c-1.213,2.9-2.21,4.021-2.919,4.021c-0.71,0-1.843-0.496-2.454-0.188    c-0.604,0.313-1.217,1.138-1.217,1.86c0,0.72-0.202,1.662,0.612,1.662c0.81,0,2.836-0.104,3.849-0.104    c1.017,0,1.925-0.212,2.635-0.729c0.714-0.518,1.011-2.805,1.011-2.805s0.813,0.217,0.813,0.729l0.403-1.343    c-0.2-0.718-0.104-1.039,0.504-2.174c0.609-1.136,0.706-1.136,1.621-2.068c0.918-0.935-0.604-0.728-0.604-1.863    c0-1.141,0.4-1.549,0.903-2.693c0.509-1.136-0.1-0.929-0.503-1.229c-0.4-0.313,0.247-0.521,0.311-1.251    c0.119-1.359-1.539-2.321-1.539-2.321c3.55-0.588,3.772-1.873,3.772-1.873c-4.529-1.213-4.333-4.847-4.333-4.847    c4.467,0.354,5.736-1.866,5.736-1.866c-2.41,0.474-3.52-2.247-3.52-2.247c0.689-0.693,0.387-2.709,0.387-2.709    c-1.598-3.395-4.961-1.027-4.961-1.027c0.923-2.115,4.475-1.997,5.612,0.225c1.141,2.227,0.217,3.337,0.217,3.337    c1.141,2.105,3.899,1.588,3.899,1.588c-2.29,4.558-5.953,3.697-5.953,3.697c1.148,3.277,4.128,2.733,4.128,2.733    c-0.061,1.742-0.645,2.462-1.307,2.8c0.311,0.213,0.825,0.396,1.661,0.16c0.617-0.176,1.251-0.455,1.914-0.762    c1.406-0.623,3.002-1.338,5.337-1.595c2.693-0.311,4.437-0.128,6.063,0.771c0.104-0.33,0.301-0.869,0.024-1.417    c-0.207-0.416-0.386-0.863,0.073-0.625l0.377,0.398c0,0,1.054,1.438,1.28,2.934l0.373,0.348c0.585,0.541,1.076,1.098,1.559,1.627    c0.869,0.975,1.7,1.896,2.994,2.719c0.384,0.23,0.906,0.521,1.584,0.867c1.62,0.83,4.099,0.396,5.404,1.021    c1.321,0.616,2.429,2.595,3.037,4.039c0.611,1.445,0.611,2.688,0.21,3.517c-0.408,0.832-0.618,1.348-1.121,1.348    c-0.507,0-0.805-0.412-1.621-0.412c-0.803,0-1.217,0.412-1.514,1.133c-0.298,0.727-0.298,2.073,0.102,2.073    c0.403,0,5.061-0.415,5.663-0.415c0.614,0,1.025-0.723,1.115-1.448c0.106-0.722,0-1.655,0-2.173c0-0.521,1.009,0.303,1.009,0.303    s0.209-1.33-0.3-2.785C55.381,44.074,54.765,42.411,54.875,41.895"/>
		<path fill="#fff" d="M38.56,36.775c-0.465-0.524-0.942-1.053-1.496-1.572c-2.18-2.051-3.834-2.525-7.377-2.117    c-2.192,0.236-3.704,0.907-5.038,1.514c-0.705,0.312-1.363,0.604-2.059,0.813c-1.624,0.463-2.353-0.585-2.771-1.166l-0.419,0.01    c0,0-0.854,0.381-0.454,0.793c0.415,0.424,1.832,2.348,5.231,1.877c1.919-0.257,8.963-1.343,8.963-1.343s-3.132,1.166-1.87,4.66    c0.396,1.089,2.598,2.104,3.467,3.366c0.868,1.27,0.689,2.949,0.181,3.672c-0.505,0.726-2.034,1.216-2.034,1.216    s-2.015-0.907-3.438,0.755c-1.415,1.657-0.604,2.594,0,2.594c0.612,0,4.459-0.104,5.27-0.104c0.813,0,1.316-0.415,1.73-0.938    c0.396-0.517,0.604-2.373,0.604-2.373s1.108,0.516,1.108,1.129c0.3-0.931,0.104-1.242,0-2.168    c-0.092-0.938,0.201-1.859,0.716-2.375c0.499-0.521,1.515-0.619,1.823-1.24c0.305-0.627-0.213-0.521-0.517-0.729    c-0.304-0.205-1.005-0.821-0.708-1.341c0.313-0.52,1.44-0.9,1.54-1.635c0.044-0.293,0.143-0.366,0.231-0.736    C40.118,38.509,39.324,37.637,38.56,36.775"/>
	</g>
</g>
<g id="Layer_2">
	<g>
		<path fill="#fff" d="M91.939,14.724v-3.239h3.239v3.239H91.939z M92.1,40V20.323h2.879V40H92.1z"/>
		<path fill="#fff" d="M110.818,40.24c-2.8,0-5.357-1.04-7.277-2.96c-2.682-2.679-2.682-5.479-2.682-11.518    c0-6.039,0-8.838,2.682-11.518c1.919-1.919,4.479-2.959,7.277-2.959c5.119,0,8.918,3.12,9.878,8.479h-3.118    c-0.762-3.479-3.199-5.759-6.76-5.759c-1.88,0-3.68,0.72-4.919,2c-1.8,1.84-2,3.799-2,9.758c0,5.958,0.2,7.918,2,9.758    c1.24,1.278,3.04,2,4.919,2c3.561,0,6.079-2.28,6.838-5.761h3.04C119.776,37.121,115.896,40.24,110.818,40.24z"/>
		<path fill="#fff" d="M124.739,14.724v-3.239h3.239v3.239H124.739z M124.899,40V20.323h2.879V40H124.899z"/>
		<path fill="#fff" d="M139.737,40c-3.357,0-5.039-2.359-5.039-5.279V22.643h-2.479v-2.2h2.479v-6.159h2.882v6.159h4.197v2.2    h-4.197v11.998c0,1.801,0.84,2.881,2.68,2.881h1.52V40H139.737z"/>
		<path fill="#fff" d="M151.577,44.76c-0.399,1.079-0.842,1.799-1.399,2.318c-1.04,1-2.439,1.359-3.84,1.359h-1.239v-2.561h0.88    c1.999,0,2.602-0.641,3.239-2.438l1.399-3.84l-7.079-19.276h3.12l5.396,15.798l5.359-15.798h3.12L151.577,44.76z"/>
	</g>
</g>
</svg>