<?xml version="1.0" encoding="utf-8"?>
<!-- Generator: Adobe Illustrator 19.1.0, SVG Export Plug-In . SVG Version: 6.00 Build 0)  -->
<svg version="1.1" xmlns="http://www.w3.org/2000/svg" xmlns:xlink="http://www.w3.org/1999/xlink" x="0px" y="0px"
	 viewBox="0 0 305 62" enable-background="new 0 0 305 62" xml:space="preserve">
<g id="Layer_1">
	<g>
		<rect x="83.738" y="0.387" fill="#FFFFFF" width="0.274" height="60.767"/>
	</g>
	<line fill="#FFFFFF" x1="-8039" y1="22.5" x2="8344" y2="22.5"/>
	<path fill="#FFFFFF" d="M21.395,0c0,0-0.249,0.889-1.553,0.826c0,1.204,0,1.65,0,1.65s1.305,0.125,1.74-0.699
		C22.016,0.954,21.395,0,21.395,0z"/>
	<path fill="#FFFFFF" d="M17.585,7.734c0,0-0.788-0.975-1.824-0.592c-1.034,0.38-0.992,0.802-1.491,0.931
		c-0.497,0.126-1.326,0.042-1.495-0.21c0,0,1.204,1.397,2.365,0.675C16.301,7.816,16.468,7.265,17.585,7.734z"/>
	<path fill="#FFFFFF" d="M19.219,25.153c0,0,1.432,1.649,2.176,2.146c0,0,0.748,1.604,0.719,2.486
		c-0.027,0.884-0.083,1.716-0.855,3.151c-0.776,1.435-1.179,1.477-1.179,1.477s-0.546-0.396-1.169-0.317
		c0,0,1.877-1.106,1.601-2.982c-0.276-1.881-0.968-1.768-1.324-3.593C18.825,25.695,18.945,25.907,19.219,25.153z"/>
	<path fill="#FFFFFF" d="M17.816,34.813c0,0-3.174,0.141-3.2,2.486c0,0,0.852,0.112,2.456,0.112
		C17.072,37.412,16.215,35.971,17.816,34.813z"/>
	<path fill="#FFFFFF" d="M40.7,26.474c-0.333-0.375-0.68-0.76-1.081-1.14c-1.577-1.486-2.773-1.831-5.344-1.539
		c-1.584,0.18-2.677,0.667-3.647,1.099c-0.511,0.226-0.99,0.441-1.486,0.584c-1.181,0.339-1.708-0.419-2.007-0.841
		c-0.031,0.008-0.276,0.003-0.306,0.009c0,0-0.622,0.275-0.327,0.578c0.296,0.306,1.32,1.699,3.789,1.361
		c1.385-0.191,6.486-0.979,6.486-0.979s-2.266,0.848-1.352,3.378c0.286,0.786,1.882,1.525,2.51,2.438
		c0.635,0.917,0.5,2.135,0.133,2.658c-0.366,0.527-1.472,0.873-1.472,0.873s-1.462-0.649-2.489,0.552
		c-1.027,1.202-0.441,1.875,0,1.875c0.437,0,3.229-0.075,3.813-0.075c0.587,0,0.955-0.299,1.249-0.675
		c0.292-0.375,0.441-1.726,0.441-1.726s0.803,0.376,0.803,0.823c0.223-0.67,0.075-0.897,0-1.57c-0.071-0.678,0.147-1.35,0.517-1.725
		c0.364-0.376,1.1-0.451,1.321-0.899c0.218-0.45-0.149-0.375-0.369-0.525c-0.22-0.148-0.731-0.6-0.514-0.975
		c0.222-0.375,1.042-0.654,1.116-1.177c0.03-0.216,0.098-0.265,0.166-0.538C41.832,27.732,41.259,27.097,40.7,26.474z
		 M52.517,30.184c0.073-0.375,1.196-0.765,1.196-0.765s-0.358-1.062-0.725-1.363c-0.367-0.299-1.059-0.046-1.498-0.495
		c-0.44-0.451-2.053-1.202-2.275-5.027c-0.217-3.824-0.115-3.651-0.115-3.651s3.931-2.273,3.784-6.845
		c-0.148-4.577-5.647-4.201-7.558-2.852c-1.904,1.352-6.529,3.749-8.068-0.524c-0.513-1.273,1.909-1.95,1.909-1.95
		s1.319,0.074,2.054-0.598c0.733-0.678,0.292-0.828,0.879-1.052c0.587-0.226,1.176-0.076,1.908-0.822
		c0.734-0.752,0.954-2.178,0.954-2.178s-0.662,1.124-1.539,1.049c-0.882-0.073-2.273-0.898-3.303-0.598
		c-1.027,0.298-1.395,0.672-1.833,1.424c-0.441,0.75-0.369,0.975-0.883,1.349c-0.513,0.376-3.668,4.728,1.469,6.975
		c3.376,1.049,6.236-1.274,6.969-1.723c0.735-0.452,1.466-0.9,2.864-0.9c1.389,0,2.86,0.974,2.932,2.324
		c0.072,1.349-0.881,3.076-3.01,3.524c-0.438,0-1.169,0.223-1.169,0.223s-1.247-1.647-6.679-0.448
		c-5.427,1.2-10.929,1.951-12.323-2.326c-0.368-3.823,2.465,0.413,2.465,0.413s-0.086-3.788-1.292-3.788
		c-0.674,0-1.469-0.599-1.469-0.599s0.147-0.751,0.518-0.751c0.364,0,1.312,1.062,1.312,1.062s0.289-2.877-0.812-3.553
		c-0.595-0.366-0.864-0.768-0.987-1.062c0.412-0.061,0.896-0.197,1.221-0.497c0.734-0.674,1.099-1.424,1.173-2.249
		c0.074-0.824-0.218-0.375-0.733-0.074c-0.513,0.3-1.468,0.449-2.2,0.449c-0.735,0-1.542-0.299-1.542-0.299
		s-0.513,0.674-1.101,0.824c-0.586,0.15-1.981,0.077-3.007,0c-1.027-0.075-1.617-0.599-2.347-0.375
		C18.919,2.661,18.7,3.185,17.747,3.41c-0.954,0.226-1.322,0-1.981-0.075c-0.662-0.073-1.468-0.073-1.613,0.45
		c-0.15,0.524-0.367,1.2-0.15,1.875c0.22,0.675,0.368,0.9,1.47,0.825c1.098-0.074,2.346,0,2.86,0.673
		c0.513,0.678,0.513,1.426,0.367,1.875c-0.147,0.452-1.101,0.282-1.615,0.207C16.57,9.163,15.84,8.865,15.547,9.39
		c-0.296,0.524-0.588,2.173,0.438,1.799c1.026-0.374,3.67-0.203,4.035-0.203c0.364,0,0.364,0,0.364,0s-3.739,2.792-3.667,6.315
		c0,5.327,4.697,8.759,4.697,8.759s-0.806-2.473-0.661-4.65c0.148-2.175,1.173-3.149,1.173-3.149s-0.805,2.474-0.072,5.774
		c0.732,3.302,1.616,5.999,0.732,8.097c-0.878,2.099-1.6,2.908-2.115,2.908c-0.515,0-1.331-0.357-1.773-0.135
		c-0.438,0.228-0.881,0.824-0.881,1.351c0,0.524-0.147,1.201,0.444,1.201c0.583,0,2.052-0.076,2.784-0.076
		c0.734,0,1.395-0.149,1.91-0.524c0.516-0.375,0.733-2.026,0.733-2.026s0.587,0.149,0.587,0.524l0.294-0.975
		c-0.148-0.523-0.075-0.75,0.365-1.572c0.44-0.826,0.511-0.826,1.174-1.5c0.661-0.675-0.442-0.525-0.442-1.35
		c0-0.826,0.296-1.122,0.661-1.95c0.368-0.825-0.074-0.673-0.365-0.899c-0.296-0.225,0.171-0.374,0.221-0.9
		c0.09-0.985-1.112-1.685-1.112-1.685c2.57-0.422,2.732-1.355,2.732-1.355c-3.277-0.876-3.136-3.509-3.136-3.509
		c3.231,0.253,4.15-1.355,4.15-1.355c-1.745,0.338-2.542-1.626-2.542-1.626c0.497-0.507,0.278-1.961,0.278-1.961
		c-1.16-2.46-3.594-0.75-3.594-0.75c0.665-1.525,3.235-1.439,4.064,0.17c0.828,1.61,0.155,2.413,0.155,2.413
		c0.828,1.527,2.83,1.147,2.83,1.147c-1.66,3.305-4.314,2.681-4.314,2.681c0.831,2.373,2.987,1.98,2.987,1.98
		c-0.042,1.264-0.465,1.786-0.943,2.031c0.221,0.155,0.6,0.287,1.201,0.115c0.445-0.13,0.907-0.331,1.391-0.55
		c1.016-0.453,2.167-0.967,3.861-1.158c1.947-0.221,3.212-0.091,4.39,0.563c0.076-0.241,0.216-0.633,0.017-1.03
		c-0.149-0.298-0.275-0.622,0.056-0.452l0.271,0.292c0,0,0.766,1.037,0.928,2.119c0.092,0.079,0.18,0.162,0.27,0.247
		c0.424,0.398,0.781,0.798,1.128,1.184c0.631,0.702,1.234,1.373,2.172,1.971c0.275,0.164,0.655,0.377,1.146,0.629
		c1.175,0.6,2.963,0.289,3.916,0.741c0.953,0.449,1.758,1.875,2.198,2.923c0.439,1.05,0.439,1.949,0.149,2.55
		c-0.293,0.601-0.442,0.974-0.808,0.974c-0.367,0-0.586-0.298-1.174-0.298c-0.582,0-0.879,0.298-1.098,0.823
		c-0.219,0.522-0.219,1.502,0.073,1.502c0.293,0,3.667-0.301,4.105-0.301c0.441,0,0.736-0.524,0.808-1.052
		c0.077-0.523,0-1.2,0-1.572c0-0.378,0.735,0.223,0.735,0.223s0.146-0.973-0.22-2.022C52.885,31.759,52.444,30.56,52.517,30.184z
		 M22.706,5.614c-0.658,0.077-1.1,0.224-1.392-0.076c-0.295-0.301-0.367-0.524-0.734-0.524c-0.368,0-0.734-0.076-0.734-0.076
		s0.149-0.149,0.809-0.45c0,0,1.466,0.149,2.051,0.225c0.586,0.076,0.808,0.148,0.808,0.148S23.367,5.538,22.706,5.614z"/>
	<g>
		<path fill="#FFFFFF" d="M4.136,49.051c0,0.267-0.043,0.506-0.131,0.711c-0.088,0.205-0.21,0.377-0.366,0.517
			c-0.156,0.143-0.343,0.246-0.559,0.317c-0.216,0.071-0.453,0.107-0.711,0.107H0v-5.855h2.278c0.548,0,0.98,0.142,1.294,0.428
			c0.316,0.283,0.474,0.677,0.474,1.176c0,0.16-0.023,0.307-0.07,0.44c-0.047,0.134-0.106,0.254-0.182,0.362
			c-0.073,0.106-0.157,0.196-0.25,0.27c-0.093,0.075-0.189,0.13-0.287,0.17c0.115,0.044,0.225,0.106,0.328,0.187
			c0.105,0.077,0.197,0.172,0.28,0.282c0.082,0.108,0.148,0.238,0.198,0.386C4.112,48.697,4.136,48.864,4.136,49.051z M3.159,46.484
			c0-0.274-0.088-0.482-0.264-0.625c-0.175-0.145-0.406-0.215-0.691-0.215H0.888v1.677h1.316c0.285,0,0.516-0.068,0.691-0.212
			C3.07,46.967,3.159,46.758,3.159,46.484z M3.249,49.01c0-0.264-0.082-0.478-0.247-0.642c-0.165-0.166-0.403-0.246-0.716-0.246
			H0.888v1.783h1.398c0.313,0,0.551-0.082,0.716-0.251C3.167,49.486,3.249,49.272,3.249,49.01z"/>
		<path fill="#FFFFFF" d="M5.289,50.703v-5.855h0.887v5.855H5.289z"/>
		<path fill="#FFFFFF" d="M10.773,50.703L9.54,48.236H8.43v2.467H7.542v-5.855h2.269c0.28,0,0.531,0.042,0.753,0.128
			c0.222,0.085,0.413,0.203,0.571,0.352c0.16,0.15,0.281,0.332,0.367,0.542c0.084,0.212,0.127,0.44,0.127,0.688
			c0,0.422-0.113,0.763-0.337,1.024c-0.225,0.262-0.502,0.438-0.83,0.532l1.349,2.59H10.773z M10.74,46.566
			c0-0.29-0.091-0.518-0.275-0.679c-0.183-0.161-0.423-0.243-0.719-0.243H8.43v1.834h1.315c0.296,0,0.536-0.078,0.719-0.237
			C10.649,47.082,10.74,46.856,10.74,46.566z"/>
		<path fill="#FFFFFF" d="M17.041,50.703v-3.914l-1.348,2.854h-0.658l-1.382-2.854v3.914h-0.889v-5.855h0.889l1.71,3.644
			l1.678-3.644h0.888v5.855H17.041z"/>
		<path fill="#FFFFFF" d="M19.286,50.703v-5.855h0.888v5.855H19.286z"/>
		<path fill="#FFFFFF" d="M25.133,50.703l-2.707-4.12v4.12h-0.888v-5.855h0.814l2.706,4.112v-4.112h0.888v5.855H25.133z"/>
		<path fill="#FFFFFF" d="M31.342,48.434c0,0.379-0.041,0.694-0.118,0.953c-0.082,0.259-0.216,0.49-0.407,0.699
			c-0.226,0.236-0.472,0.406-0.741,0.51c-0.269,0.105-0.56,0.158-0.873,0.158c-0.306,0-0.589-0.056-0.846-0.161
			c-0.258-0.106-0.489-0.261-0.691-0.464c-0.143-0.144-0.253-0.296-0.33-0.454c-0.077-0.157-0.133-0.332-0.169-0.517
			c-0.036-0.188-0.056-0.394-0.061-0.623c-0.005-0.226-0.008-0.479-0.008-0.76c0-0.279,0.003-0.532,0.008-0.762
			c0.005-0.226,0.025-0.433,0.061-0.619c0.036-0.188,0.092-0.359,0.169-0.519c0.076-0.161,0.186-0.311,0.33-0.453
			c0.202-0.202,0.431-0.358,0.686-0.465c0.256-0.107,0.539-0.16,0.851-0.16c0.313,0,0.59,0.048,0.836,0.142
			c0.244,0.099,0.456,0.229,0.633,0.392c0.178,0.167,0.323,0.357,0.433,0.575c0.109,0.221,0.186,0.456,0.23,0.707h-0.897
			c-0.076-0.322-0.219-0.574-0.428-0.752c-0.208-0.177-0.477-0.266-0.807-0.266c-0.174,0-0.336,0.03-0.484,0.096
			c-0.149,0.067-0.275,0.156-0.379,0.265c-0.071,0.078-0.13,0.163-0.177,0.252c-0.046,0.09-0.082,0.202-0.107,0.336
			c-0.025,0.136-0.042,0.301-0.053,0.494c-0.01,0.195-0.017,0.439-0.017,0.736c0,0.295,0.006,0.542,0.017,0.739
			c0.011,0.198,0.028,0.364,0.053,0.498s0.06,0.247,0.107,0.337c0.046,0.09,0.106,0.173,0.177,0.252
			c0.104,0.109,0.23,0.197,0.379,0.258c0.148,0.063,0.31,0.096,0.484,0.096c0.192,0,0.371-0.035,0.536-0.107
			c0.165-0.07,0.305-0.174,0.419-0.305c0.109-0.126,0.187-0.264,0.231-0.412c0.043-0.146,0.066-0.317,0.066-0.51v-0.329h-1.251
			v-0.757h2.139V48.434z"/>
		<path fill="#FFFFFF" d="M35.75,50.703v-2.558h-2.375v2.558h-0.888v-5.855h0.888v2.498h2.375v-2.498h0.889v5.855H35.75z"/>
		<path fill="#FFFFFF" d="M41.367,50.703l-0.403-1.177h-2.311l-0.404,1.177h-0.944l2.145-5.855h0.715l2.147,5.855H41.367z
			 M39.829,46.172l-0.912,2.599h1.801L39.829,46.172z"/>
		<path fill="#FFFFFF" d="M47.255,50.703v-3.914l-1.348,2.854h-0.658l-1.381-2.854v3.914h-0.888v-5.855h0.888l1.709,3.644
			l1.678-3.644h0.889v5.855H47.255z"/>
		<path fill="#FFFFFF" d="M55.291,48.951c-0.049,0.29-0.135,0.549-0.258,0.772c-0.124,0.225-0.277,0.415-0.461,0.568
			c-0.184,0.155-0.392,0.269-0.626,0.346c-0.232,0.076-0.479,0.116-0.744,0.116c-0.306,0-0.589-0.056-0.847-0.161
			c-0.258-0.106-0.488-0.261-0.691-0.464c-0.142-0.144-0.251-0.296-0.329-0.454c-0.077-0.157-0.132-0.332-0.168-0.517
			c-0.036-0.188-0.056-0.394-0.061-0.623c-0.006-0.226-0.008-0.479-0.008-0.76c0-0.279,0.002-0.532,0.008-0.762
			c0.005-0.226,0.025-0.433,0.061-0.619c0.036-0.188,0.092-0.359,0.168-0.519c0.078-0.161,0.187-0.311,0.329-0.453
			c0.204-0.202,0.434-0.358,0.691-0.465c0.257-0.107,0.541-0.16,0.847-0.16c0.543,0,1.001,0.154,1.374,0.461
			c0.373,0.307,0.611,0.752,0.715,1.342h-0.904c-0.071-0.299-0.205-0.539-0.399-0.725c-0.195-0.187-0.456-0.279-0.786-0.279
			c-0.175,0-0.337,0.03-0.485,0.093c-0.149,0.063-0.275,0.151-0.379,0.26c-0.071,0.078-0.129,0.16-0.176,0.25
			c-0.047,0.09-0.082,0.204-0.107,0.338c-0.025,0.135-0.043,0.299-0.053,0.496c-0.011,0.198-0.017,0.445-0.017,0.742
			c0,0.295,0.005,0.542,0.017,0.739c0.01,0.198,0.028,0.364,0.053,0.498c0.024,0.134,0.06,0.247,0.107,0.337
			c0.047,0.09,0.105,0.173,0.176,0.252c0.104,0.109,0.23,0.197,0.379,0.258c0.147,0.063,0.31,0.096,0.485,0.096
			c0.33,0,0.591-0.094,0.789-0.28c0.198-0.185,0.333-0.427,0.403-0.724H55.291z"/>
		<path fill="#FFFFFF" d="M56.311,50.703v-5.855h0.888v5.855H56.311z"/>
		<path fill="#FFFFFF" d="M60.545,45.645v5.059h-0.887v-5.059h-1.613v-0.797h4.112v0.797H60.545z"/>
		<path fill="#FFFFFF" d="M64.92,48.293v2.41h-0.888v-2.41l-1.752-3.445h0.972l1.225,2.574l1.226-2.574h0.971L64.92,48.293z"/>
		<path fill="#FFFFFF" d="M20.215,58.172c0,0.3-0.054,0.578-0.161,0.826c-0.107,0.25-0.255,0.463-0.444,0.638
			c-0.189,0.177-0.412,0.312-0.67,0.412c-0.257,0.097-0.534,0.147-0.83,0.147c-0.296,0-0.573-0.051-0.831-0.147
			c-0.258-0.1-0.48-0.235-0.667-0.412c-0.186-0.175-0.332-0.388-0.439-0.638c-0.106-0.248-0.16-0.526-0.16-0.826V54.29H16.9v3.842
			c0,0.395,0.109,0.704,0.329,0.93c0.219,0.224,0.514,0.336,0.881,0.336c0.366,0,0.661-0.112,0.883-0.336
			c0.222-0.226,0.333-0.535,0.333-0.93V54.29h0.889V58.172z"/>
		<path fill="#FFFFFF" d="M24.096,60.145v-2.54c0-0.323-0.081-0.56-0.242-0.707c-0.163-0.148-0.361-0.221-0.596-0.221
			c-0.235,0-0.44,0.074-0.609,0.225c-0.169,0.151-0.253,0.385-0.253,0.703v2.54h-0.84v-4.169h0.823v0.42
			c0.143-0.159,0.312-0.277,0.506-0.354c0.194-0.077,0.395-0.115,0.604-0.115c0.214,0,0.408,0.031,0.58,0.099
			c0.173,0.065,0.323,0.159,0.448,0.28c0.16,0.159,0.27,0.337,0.33,0.529c0.061,0.194,0.09,0.41,0.09,0.647v2.662H24.096z"/>
		<path fill="#FFFFFF" d="M26.201,55.152v-0.888h0.889v0.888H26.201z M26.227,60.145v-4.169h0.84v4.169H26.227z"/>
		<path fill="#FFFFFF" d="M30.01,60.145h-0.682l-1.53-4.169h0.888l0.987,2.936l0.979-2.936h0.888L30.01,60.145z"/>
		<path fill="#FFFFFF" d="M32.805,58.302c0,0.364,0.091,0.65,0.273,0.856c0.18,0.209,0.443,0.312,0.789,0.312
			c0.235,0,0.426-0.033,0.57-0.101c0.146-0.07,0.293-0.178,0.441-0.326l0.535,0.501c-0.111,0.109-0.219,0.204-0.326,0.283
			c-0.106,0.08-0.222,0.146-0.346,0.202c-0.122,0.056-0.256,0.096-0.402,0.122c-0.146,0.029-0.309,0.043-0.49,0.043
			c-0.263,0-0.508-0.037-0.736-0.112c-0.228-0.072-0.424-0.193-0.592-0.36c-0.168-0.169-0.3-0.388-0.399-0.661
			c-0.098-0.277-0.148-0.609-0.148-1.005c0-0.681,0.16-1.204,0.481-1.573c0.32-0.371,0.75-0.557,1.286-0.557
			c0.28,0,0.529,0.049,0.749,0.146c0.219,0.102,0.404,0.237,0.555,0.413c0.151,0.176,0.266,0.384,0.346,0.634
			c0.079,0.246,0.119,0.518,0.119,0.814v0.367H32.805z M34.681,57.719c-0.005-0.126-0.015-0.228-0.028-0.308
			c-0.014-0.079-0.042-0.166-0.086-0.259c-0.066-0.159-0.17-0.286-0.313-0.382c-0.142-0.099-0.312-0.146-0.51-0.146
			c-0.198,0-0.369,0.047-0.513,0.146c-0.146,0.096-0.251,0.223-0.317,0.382c-0.044,0.093-0.071,0.18-0.082,0.259
			c-0.011,0.08-0.019,0.182-0.026,0.308H34.681z"/>
		<path fill="#FFFFFF" d="M38.917,56.955c-0.093-0.094-0.186-0.164-0.275-0.21c-0.091-0.047-0.208-0.068-0.35-0.068
			c-0.229,0-0.427,0.082-0.587,0.248c-0.162,0.168-0.244,0.398-0.244,0.688v2.532h-0.839v-4.169h0.824v0.453
			c0.109-0.148,0.263-0.27,0.459-0.361c0.198-0.093,0.416-0.141,0.651-0.141c0.202,0,0.384,0.03,0.542,0.091
			c0.16,0.061,0.309,0.161,0.452,0.303L38.917,56.955z"/>
		<path fill="#FFFFFF" d="M43.233,58.871c0,0.219-0.043,0.412-0.13,0.574c-0.087,0.167-0.208,0.304-0.362,0.417
			c-0.153,0.111-0.336,0.194-0.551,0.249c-0.214,0.057-0.444,0.084-0.691,0.084c-0.34,0-0.654-0.041-0.945-0.12
			c-0.292-0.078-0.561-0.238-0.807-0.479l0.551-0.552c0.169,0.176,0.361,0.292,0.571,0.35c0.212,0.056,0.422,0.087,0.63,0.087
			c0.258,0,0.475-0.047,0.65-0.141c0.176-0.093,0.263-0.237,0.263-0.436c0-0.143-0.043-0.256-0.127-0.343
			c-0.085-0.085-0.229-0.135-0.432-0.152l-0.666-0.057c-0.395-0.033-0.7-0.142-0.913-0.325c-0.214-0.184-0.321-0.459-0.321-0.827
			c0-0.201,0.04-0.383,0.123-0.541c0.082-0.159,0.194-0.292,0.337-0.398c0.142-0.107,0.309-0.189,0.497-0.246
			c0.19-0.061,0.394-0.088,0.613-0.088c0.312,0,0.601,0.036,0.863,0.106c0.263,0.071,0.491,0.191,0.682,0.362l-0.526,0.534
			c-0.131-0.108-0.287-0.188-0.464-0.232c-0.177-0.047-0.366-0.072-0.563-0.072c-0.252,0-0.442,0.052-0.568,0.149
			c-0.126,0.096-0.189,0.227-0.189,0.387c0,0.125,0.04,0.232,0.12,0.315c0.079,0.086,0.232,0.14,0.457,0.161l0.657,0.059
			c0.395,0.03,0.7,0.141,0.917,0.331C43.125,58.218,43.233,58.497,43.233,58.871z"/>
		<path fill="#FFFFFF" d="M44.229,55.152v-0.888h0.887v0.888H44.229z M44.253,60.145v-4.169h0.839v4.169H44.253z"/>
		<path fill="#FFFFFF" d="M47.667,60.145c-0.198,0-0.368-0.033-0.51-0.097c-0.144-0.065-0.261-0.152-0.354-0.26
			c-0.094-0.107-0.164-0.231-0.209-0.37c-0.047-0.14-0.069-0.284-0.069-0.432v-2.295h-0.477v-0.641h0.477v-1.268h0.838v1.268h0.806
			v0.641h-0.806v2.253c0,0.152,0.036,0.273,0.11,0.358c0.075,0.086,0.192,0.128,0.351,0.128h0.345v0.714H47.667z"/>
		<path fill="#FFFFFF" d="M50.545,60.977c-0.076,0.22-0.178,0.391-0.304,0.518c-0.115,0.114-0.247,0.195-0.395,0.239
			c-0.147,0.042-0.301,0.065-0.46,0.065h-0.338v-0.756h0.215c0.175,0,0.304-0.033,0.386-0.096c0.083-0.062,0.153-0.18,0.214-0.348
			l0.23-0.651l-1.456-3.973h0.887l0.997,2.936l0.97-2.936h0.896L50.545,60.977z"/>
	</g>
</g>
<g id="Layer_4">
	<g>
		<path fill="#FFFFFF" d="M104.051,4.879v4.978h5.928v1.292h-5.928v5.966h-1.444V3.587h8.398v1.292H104.051z"/>
		<path fill="#FFFFFF" d="M118.111,17.115v-0.893c-0.368,0.368-0.754,0.627-1.159,0.779c-0.406,0.152-0.918,0.228-1.539,0.228
			c-0.646,0-1.166-0.063-1.558-0.19s-0.753-0.348-1.083-0.665c-0.241-0.228-0.418-0.51-0.532-0.845
			c-0.114-0.335-0.171-0.687-0.171-1.055c0-0.836,0.278-1.494,0.836-1.976c0.557-0.481,1.361-0.722,2.413-0.722h2.793v-0.893
			c0-0.684-0.181-1.197-0.542-1.539c-0.361-0.342-0.979-0.513-1.853-0.513c-0.596,0-1.064,0.083-1.406,0.247
			c-0.342,0.165-0.659,0.444-0.95,0.836l-0.931-0.855c0.405-0.544,0.864-0.915,1.377-1.111s1.156-0.294,1.929-0.294
			c1.266,0,2.207,0.266,2.821,0.798c0.614,0.532,0.921,1.305,0.921,2.318v6.346H118.111z M118.111,12.802h-2.603
			c-1.406,0-2.109,0.551-2.109,1.653c0,0.545,0.171,0.947,0.513,1.207c0.342,0.26,0.893,0.39,1.653,0.39
			c0.393,0,0.76-0.035,1.102-0.104c0.342-0.069,0.665-0.244,0.969-0.522c0.316-0.304,0.475-0.842,0.475-1.615V12.802z"/>
		<path fill="#FFFFFF" d="M129.511,15.842c-0.481,0.52-0.953,0.88-1.416,1.083s-1.017,0.304-1.663,0.304
			c-0.595,0-1.143-0.098-1.644-0.294s-0.938-0.494-1.311-0.893c-0.374-0.399-0.665-0.899-0.874-1.501
			c-0.209-0.601-0.314-1.301-0.314-2.099c0-0.798,0.104-1.495,0.314-2.09c0.209-0.595,0.5-1.092,0.874-1.491s0.811-0.7,1.311-0.903
			c0.5-0.202,1.048-0.304,1.644-0.304c0.646,0,1.2,0.102,1.663,0.304c0.462,0.203,0.934,0.564,1.416,1.083l-0.931,0.874
			c-0.354-0.392-0.69-0.665-1.007-0.817c-0.317-0.152-0.697-0.228-1.14-0.228c-0.456,0-0.868,0.089-1.235,0.266
			c-0.368,0.178-0.678,0.443-0.931,0.798c-0.215,0.304-0.37,0.649-0.465,1.036c-0.095,0.387-0.143,0.877-0.143,1.473
			s0.047,1.086,0.143,1.472c0.095,0.387,0.25,0.731,0.465,1.036c0.253,0.355,0.563,0.621,0.931,0.798
			c0.367,0.178,0.779,0.266,1.235,0.266c0.443,0,0.823-0.079,1.14-0.237c0.316-0.158,0.652-0.434,1.007-0.827L129.511,15.842z"/>
		<path fill="#FFFFFF" d="M138.023,17.115V16.07c-0.33,0.38-0.72,0.668-1.169,0.864c-0.45,0.196-0.941,0.294-1.473,0.294
			c-1.026,0-1.831-0.291-2.413-0.874c-0.33-0.33-0.57-0.713-0.722-1.15c-0.152-0.437-0.228-0.928-0.228-1.472V7.767h1.368v5.757
			c0,0.836,0.203,1.46,0.608,1.871c0.405,0.412,0.963,0.618,1.672,0.618c0.709,0,1.276-0.209,1.7-0.627
			c0.424-0.418,0.637-1.039,0.637-1.862V7.767h1.367v9.348H138.023z"/>
		<path fill="#FFFFFF" d="M145.129,17.115c-0.823,0-1.425-0.237-1.805-0.712s-0.57-1.067-0.57-1.776V3.587h1.368v10.982
			c0,0.456,0.089,0.798,0.266,1.026c0.178,0.228,0.507,0.342,0.988,0.342h0.741v1.178H145.129z"/>
		<path fill="#FFFFFF" d="M150.999,17.115c-0.405,0-0.757-0.066-1.055-0.2c-0.298-0.133-0.545-0.313-0.741-0.542
			s-0.345-0.494-0.446-0.798c-0.102-0.304-0.151-0.627-0.151-0.969V8.812h-1.179V7.767h1.179V4.898h1.367v2.869h1.995v1.045h-1.995
			v5.757c0,0.431,0.102,0.767,0.305,1.007c0.202,0.241,0.525,0.361,0.969,0.361h0.722v1.178H150.999z"/>
		<path fill="#FFFFFF" d="M157.004,19.376c-0.178,0.494-0.399,0.861-0.665,1.102c-0.254,0.241-0.539,0.409-0.855,0.504
			c-0.316,0.095-0.64,0.142-0.969,0.142h-0.589v-1.216h0.418c0.469,0,0.804-0.085,1.007-0.256c0.202-0.171,0.38-0.472,0.532-0.903
			l0.665-1.824l-3.363-9.158h1.482l2.564,7.505l2.546-7.505h1.482L157.004,19.376z"/>
		<path fill="#FFFFFF" d="M175.053,12.441c0,0.722-0.072,1.403-0.218,2.042c-0.146,0.64-0.453,1.2-0.922,1.681
			c-0.329,0.33-0.716,0.589-1.159,0.779s-0.949,0.285-1.52,0.285s-1.077-0.095-1.521-0.285s-0.829-0.45-1.158-0.779
			c-0.241-0.24-0.435-0.503-0.58-0.788c-0.146-0.285-0.26-0.583-0.342-0.893c-0.083-0.311-0.14-0.637-0.171-0.979
			c-0.032-0.342-0.048-0.697-0.048-1.064c0-0.722,0.069-1.403,0.209-2.042s0.449-1.2,0.932-1.682
			c0.329-0.329,0.715-0.589,1.158-0.779c0.443-0.19,0.95-0.285,1.521-0.285s1.076,0.095,1.52,0.285
			c0.443,0.19,0.83,0.45,1.159,0.779c0.481,0.481,0.792,1.042,0.931,1.682C174.983,11.038,175.053,11.719,175.053,12.441z
			 M173.686,12.441c0-0.532-0.038-1.061-0.114-1.587c-0.076-0.525-0.285-0.959-0.627-1.301c-0.456-0.456-1.026-0.684-1.71-0.684
			c-0.672,0-1.235,0.228-1.691,0.684c-0.342,0.342-0.554,0.776-0.637,1.301c-0.082,0.526-0.123,1.055-0.123,1.587
			c0,0.266,0.006,0.532,0.019,0.798s0.045,0.526,0.096,0.779c0.05,0.254,0.126,0.491,0.228,0.713s0.24,0.421,0.418,0.598
			c0.456,0.456,1.02,0.684,1.691,0.684c0.684,0,1.254-0.228,1.71-0.684c0.342-0.354,0.551-0.792,0.627-1.311
			C173.647,13.499,173.686,12.973,173.686,12.441z"/>
		<path fill="#FFFFFF" d="M179.65,8.812v8.303h-1.368V8.812h-1.196V7.767h1.196v-1.71c0-0.342,0.048-0.665,0.143-0.969
			c0.096-0.304,0.244-0.57,0.446-0.798c0.203-0.228,0.45-0.408,0.741-0.542c0.291-0.133,0.64-0.199,1.045-0.199h0.988v1.178h-0.741
			c-0.443,0-0.763,0.121-0.959,0.361c-0.197,0.241-0.295,0.576-0.295,1.007v1.672h1.995v1.045H179.65z"/>
		<path fill="#FFFFFF" d="M110.459,32.493c-0.215,1.202-0.711,2.123-1.488,2.763c-0.776,0.641-1.72,0.961-2.83,0.961
			c-0.669,0-1.258-0.104-1.768-0.314c-0.51-0.21-0.963-0.513-1.36-0.91c-0.294-0.294-0.524-0.601-0.688-0.918
			c-0.164-0.316-0.286-0.665-0.365-1.045c-0.08-0.38-0.127-0.811-0.145-1.292s-0.025-1.04-0.025-1.674s0.008-1.193,0.025-1.675
			c0.017-0.481,0.065-0.912,0.145-1.292c0.079-0.379,0.201-0.728,0.365-1.045c0.165-0.317,0.394-0.623,0.688-0.918
			c0.397-0.396,0.85-0.7,1.36-0.91c0.51-0.209,1.099-0.314,1.768-0.314c1.122,0,2.068,0.32,2.839,0.96
			c0.771,0.641,1.264,1.562,1.479,2.763h-1.87c-0.136-0.623-0.408-1.127-0.816-1.513c-0.408-0.385-0.952-0.578-1.632-0.578
			c-0.726,0-1.321,0.25-1.785,0.748c-0.159,0.159-0.284,0.334-0.374,0.527c-0.091,0.193-0.165,0.428-0.221,0.706
			s-0.093,0.62-0.11,1.028c-0.017,0.408-0.025,0.913-0.025,1.513s0.008,1.105,0.025,1.512c0.017,0.408,0.054,0.751,0.11,1.028
			c0.057,0.278,0.13,0.514,0.221,0.706c0.09,0.192,0.215,0.368,0.374,0.527c0.464,0.498,1.06,0.748,1.785,0.748
			c0.68,0,1.227-0.193,1.64-0.578c0.414-0.386,0.694-0.89,0.842-1.514H110.459z"/>
		<path fill="#FFFFFF" d="M119.486,31.797c0,0.736-0.068,1.38-0.204,1.929c-0.136,0.55-0.408,1.04-0.816,1.471
			c-0.284,0.295-0.638,0.539-1.062,0.731c-0.425,0.192-0.933,0.289-1.521,0.289c-0.589,0-1.094-0.097-1.513-0.289
			c-0.419-0.192-0.771-0.437-1.054-0.731c-0.408-0.431-0.68-0.921-0.816-1.471c-0.136-0.549-0.204-1.192-0.204-1.929
			c0-0.725,0.068-1.363,0.204-1.913c0.136-0.55,0.408-1.04,0.816-1.471c0.283-0.294,0.635-0.538,1.054-0.731
			c0.419-0.192,0.924-0.289,1.513-0.289c0.589,0,1.096,0.097,1.521,0.289c0.425,0.193,0.779,0.437,1.062,0.731
			c0.408,0.431,0.68,0.921,0.816,1.471C119.418,30.434,119.486,31.072,119.486,31.797z M117.752,31.797
			c0-0.476-0.034-0.924-0.102-1.343c-0.068-0.419-0.232-0.759-0.493-1.02c-0.329-0.329-0.754-0.493-1.275-0.493
			c-0.51,0-0.93,0.164-1.258,0.493c-0.261,0.261-0.425,0.601-0.493,1.02c-0.068,0.419-0.102,0.867-0.102,1.343
			c0,0.476,0.034,0.924,0.102,1.343c0.068,0.419,0.232,0.759,0.493,1.02c0.34,0.34,0.759,0.511,1.258,0.511
			c0.51,0,0.935-0.171,1.275-0.511c0.261-0.261,0.425-0.601,0.493-1.02C117.718,32.721,117.752,32.272,117.752,31.797z"/>
		<path fill="#FFFFFF" d="M132.338,36.114v-5.252c0-0.668-0.167-1.156-0.501-1.462c-0.334-0.306-0.745-0.459-1.232-0.459
			c-0.238,0-0.465,0.037-0.68,0.11c-0.216,0.074-0.406,0.187-0.57,0.34c-0.165,0.153-0.295,0.346-0.391,0.578
			c-0.096,0.232-0.145,0.501-0.145,0.808v5.337h-1.734v-5.252c0-0.668-0.167-1.156-0.501-1.462
			c-0.334-0.306-0.745-0.459-1.232-0.459s-0.907,0.156-1.258,0.467c-0.352,0.312-0.527,0.796-0.527,1.454v5.252h-1.734v-8.619h1.7
			v0.867c0.294-0.317,0.643-0.558,1.045-0.723c0.402-0.164,0.818-0.247,1.25-0.247c1.088,0,1.904,0.419,2.448,1.258
			c0.691-0.839,1.592-1.258,2.703-1.258c0.442,0,0.85,0.068,1.224,0.204c0.374,0.136,0.691,0.329,0.952,0.578
			c0.328,0.329,0.563,0.694,0.705,1.097s0.213,0.847,0.213,1.334v5.507H132.338z"/>
		<path fill="#FFFFFF" d="M143.795,31.797c0,0.351-0.01,0.699-0.033,1.045s-0.068,0.678-0.137,0.995
			c-0.066,0.317-0.166,0.611-0.297,0.884c-0.131,0.271-0.297,0.516-0.502,0.73c-0.238,0.238-0.535,0.426-0.893,0.562
			c-0.355,0.136-0.756,0.204-1.197,0.204c-0.465,0-0.879-0.068-1.242-0.204c-0.361-0.136-0.703-0.396-1.02-0.782V39.6h-1.734V27.496
			h1.701v0.918c0.328-0.396,0.674-0.666,1.037-0.807c0.361-0.142,0.775-0.213,1.24-0.213c0.441,0,0.844,0.068,1.207,0.204
			c0.363,0.136,0.662,0.323,0.9,0.561c0.205,0.215,0.371,0.459,0.502,0.731s0.23,0.564,0.297,0.875
			c0.068,0.312,0.113,0.641,0.137,0.986S143.795,31.446,143.795,31.797z M142.062,31.797c0-0.385-0.021-0.751-0.061-1.097
			s-0.121-0.648-0.246-0.91c-0.125-0.26-0.307-0.467-0.545-0.62c-0.236-0.153-0.549-0.229-0.934-0.229
			c-0.396,0-0.715,0.076-0.953,0.229c-0.238,0.153-0.418,0.36-0.543,0.62c-0.125,0.261-0.207,0.564-0.246,0.91
			c-0.041,0.346-0.061,0.711-0.061,1.097c0,0.385,0.02,0.751,0.061,1.096c0.039,0.347,0.121,0.652,0.246,0.918
			c0.125,0.267,0.305,0.477,0.543,0.63c0.238,0.152,0.557,0.229,0.953,0.229c0.385,0,0.697-0.077,0.934-0.229
			c0.238-0.153,0.42-0.363,0.545-0.63c0.125-0.266,0.207-0.571,0.246-0.918C142.041,32.548,142.062,32.182,142.062,31.797z"/>
		<path fill="#FFFFFF" d="M151.344,36.114v-0.867c-0.295,0.329-0.644,0.573-1.046,0.731s-0.818,0.238-1.249,0.238
			c-0.442,0-0.842-0.068-1.198-0.204c-0.357-0.136-0.666-0.329-0.927-0.578c-0.329-0.329-0.556-0.694-0.681-1.097
			c-0.124-0.402-0.187-0.847-0.187-1.334v-5.508h1.734v5.252c0,0.669,0.167,1.156,0.501,1.463c0.334,0.306,0.745,0.459,1.232,0.459
			c0.238,0,0.468-0.037,0.688-0.111c0.222-0.073,0.411-0.189,0.569-0.348c0.159-0.159,0.286-0.36,0.383-0.604
			c0.097-0.244,0.145-0.53,0.145-0.859v-5.252h1.734v8.619H151.344z"/>
		<path fill="#FFFFFF" d="M158.365,36.114c-0.408,0-0.76-0.067-1.055-0.204c-0.295-0.136-0.538-0.314-0.73-0.535
			c-0.193-0.221-0.338-0.476-0.434-0.765c-0.097-0.289-0.145-0.587-0.145-0.893v-4.896h-0.986v-1.326h0.986v-2.465h1.734v2.465
			h1.666v1.326h-1.666v4.811c0,0.317,0.076,0.563,0.229,0.739c0.152,0.176,0.394,0.264,0.722,0.264h0.715v1.479H158.365z"/>
		<path fill="#FFFFFF" d="M161.561,25.796V23.96h1.836v1.836H161.561z M161.611,36.114v-8.619h1.734v8.619H161.611z"/>
		<path fill="#FFFFFF" d="M171.353,36.114v-5.252c0-0.668-0.167-1.156-0.501-1.462c-0.335-0.306-0.746-0.459-1.232-0.459
			c-0.488,0-0.907,0.156-1.259,0.467c-0.352,0.312-0.526,0.796-0.526,1.454v5.252H166.1v-8.619h1.7v0.867
			c0.294-0.329,0.643-0.572,1.045-0.731s0.819-0.238,1.25-0.238c0.442,0,0.842,0.068,1.198,0.204
			c0.357,0.136,0.666,0.329,0.927,0.578c0.328,0.329,0.555,0.694,0.68,1.097s0.188,0.847,0.188,1.334v5.507H171.353z"/>
		<path fill="#FFFFFF" d="M182.335,36.063c0,0.532-0.085,1.021-0.255,1.462c-0.17,0.442-0.414,0.824-0.731,1.147
			s-0.702,0.575-1.155,0.757c-0.454,0.181-0.97,0.271-1.548,0.271c-0.657,0-1.215-0.085-1.674-0.255s-0.916-0.465-1.369-0.884
			l1.105-1.105c0.271,0.261,0.544,0.454,0.815,0.578c0.272,0.125,0.624,0.188,1.055,0.188c0.362,0,0.671-0.06,0.927-0.179
			c0.255-0.119,0.464-0.28,0.629-0.484c0.164-0.204,0.283-0.437,0.356-0.697c0.074-0.261,0.11-0.538,0.11-0.833v-1.104
			c-0.317,0.374-0.657,0.632-1.02,0.773c-0.363,0.142-0.766,0.212-1.207,0.212c-0.431,0-0.822-0.067-1.173-0.204
			c-0.352-0.136-0.646-0.322-0.884-0.561c-0.42-0.419-0.687-0.924-0.8-1.513c-0.113-0.59-0.17-1.253-0.17-1.989
			s0.057-1.399,0.17-1.989s0.38-1.094,0.8-1.513c0.498-0.499,1.189-0.748,2.073-0.748c0.465,0,0.876,0.071,1.232,0.213
			c0.357,0.142,0.7,0.411,1.029,0.807v-0.918h1.683V36.063z M180.601,31.644c0-0.34-0.017-0.671-0.051-0.994
			c-0.034-0.323-0.113-0.612-0.238-0.867c-0.124-0.255-0.303-0.459-0.535-0.612c-0.232-0.153-0.541-0.229-0.927-0.229
			c-0.396,0-0.711,0.076-0.943,0.229c-0.232,0.153-0.408,0.357-0.526,0.612c-0.119,0.255-0.199,0.544-0.238,0.867
			c-0.04,0.323-0.06,0.654-0.06,0.994s0.02,0.672,0.06,0.994c0.039,0.323,0.119,0.612,0.238,0.867
			c0.118,0.255,0.294,0.459,0.526,0.612c0.232,0.152,0.547,0.229,0.943,0.229c0.386,0,0.694-0.077,0.927-0.229
			c0.232-0.153,0.411-0.357,0.535-0.612c0.125-0.255,0.204-0.544,0.238-0.867C180.584,32.315,180.601,31.983,180.601,31.644z"/>
		<path fill="#FFFFFF" d="M185.037,38.749v-4.606h1.972v2.992L185.037,38.749z"/>
		<path fill="#FFFFFF" d="M193.996,36.114V24.011h7.735v1.649h-5.899v3.536h5.032v1.632h-5.032v3.638h5.899v1.648H193.996z"/>
		<path fill="#FFFFFF" d="M209.296,36.114v-5.252c0-0.668-0.167-1.156-0.501-1.462c-0.335-0.306-0.746-0.459-1.232-0.459
			c-0.488,0-0.907,0.156-1.259,0.467c-0.352,0.312-0.526,0.796-0.526,1.454v5.252h-1.734v-8.619h1.7v0.867
			c0.294-0.329,0.643-0.572,1.045-0.731s0.819-0.238,1.25-0.238c0.442,0,0.842,0.068,1.198,0.204
			c0.357,0.136,0.666,0.329,0.927,0.578c0.328,0.329,0.555,0.694,0.68,1.097s0.188,0.847,0.188,1.334v5.507H209.296z"/>
		<path fill="#FFFFFF" d="M220.278,36.063c0,0.532-0.085,1.021-0.255,1.462c-0.17,0.442-0.414,0.824-0.731,1.147
			s-0.702,0.575-1.155,0.757c-0.454,0.181-0.97,0.271-1.548,0.271c-0.657,0-1.215-0.085-1.674-0.255s-0.916-0.465-1.369-0.884
			l1.105-1.105c0.271,0.261,0.544,0.454,0.815,0.578c0.272,0.125,0.624,0.188,1.055,0.188c0.362,0,0.671-0.06,0.927-0.179
			c0.255-0.119,0.464-0.28,0.629-0.484c0.164-0.204,0.283-0.437,0.356-0.697c0.074-0.261,0.11-0.538,0.11-0.833v-1.104
			c-0.317,0.374-0.657,0.632-1.02,0.773c-0.363,0.142-0.766,0.212-1.207,0.212c-0.431,0-0.822-0.067-1.173-0.204
			c-0.352-0.136-0.646-0.322-0.884-0.561c-0.42-0.419-0.687-0.924-0.8-1.513c-0.113-0.59-0.17-1.253-0.17-1.989
			s0.057-1.399,0.17-1.989s0.38-1.094,0.8-1.513c0.498-0.499,1.189-0.748,2.073-0.748c0.465,0,0.876,0.071,1.232,0.213
			c0.357,0.142,0.7,0.411,1.029,0.807v-0.918h1.683V36.063z M218.544,31.644c0-0.34-0.017-0.671-0.051-0.994
			c-0.034-0.323-0.113-0.612-0.238-0.867c-0.124-0.255-0.303-0.459-0.535-0.612c-0.232-0.153-0.541-0.229-0.927-0.229
			c-0.396,0-0.711,0.076-0.943,0.229c-0.232,0.153-0.408,0.357-0.526,0.612c-0.119,0.255-0.199,0.544-0.238,0.867
			c-0.04,0.323-0.06,0.654-0.06,0.994s0.02,0.672,0.06,0.994c0.039,0.323,0.119,0.612,0.238,0.867
			c0.118,0.255,0.294,0.459,0.526,0.612c0.232,0.152,0.547,0.229,0.943,0.229c0.386,0,0.694-0.077,0.927-0.229
			c0.232-0.153,0.411-0.357,0.535-0.612c0.125-0.255,0.204-0.544,0.238-0.867C218.527,32.315,218.544,31.983,218.544,31.644z"/>
		<path fill="#FFFFFF" d="M222.98,25.796V23.96h1.836v1.836H222.98z M223.031,36.114v-8.619h1.734v8.619H223.031z"/>
		<path fill="#FFFFFF" d="M232.772,36.114v-5.252c0-0.668-0.167-1.156-0.501-1.462c-0.335-0.306-0.746-0.459-1.232-0.459
			c-0.488,0-0.907,0.156-1.259,0.467c-0.352,0.312-0.526,0.796-0.526,1.454v5.252h-1.734v-8.619h1.7v0.867
			c0.294-0.329,0.643-0.572,1.045-0.731s0.819-0.238,1.25-0.238c0.442,0,0.842,0.068,1.198,0.204
			c0.357,0.136,0.666,0.329,0.927,0.578c0.328,0.329,0.555,0.694,0.68,1.097s0.188,0.847,0.188,1.334v5.507H232.772z"/>
		<path fill="#FFFFFF" d="M238.451,32.307c0,0.748,0.187,1.337,0.561,1.768s0.918,0.646,1.632,0.646
			c0.487,0,0.882-0.071,1.182-0.213s0.604-0.365,0.909-0.671l1.105,1.036c-0.227,0.228-0.45,0.423-0.672,0.587
			c-0.221,0.164-0.459,0.304-0.714,0.417s-0.532,0.198-0.833,0.255c-0.3,0.057-0.638,0.085-1.012,0.085
			c-0.544,0-1.051-0.077-1.521-0.229c-0.47-0.153-0.878-0.402-1.224-0.748s-0.62-0.802-0.824-1.369
			c-0.204-0.566-0.307-1.258-0.307-2.073c0-1.417,0.332-2.505,0.995-3.264s1.55-1.139,2.66-1.139c0.578,0,1.094,0.1,1.547,0.298
			s0.836,0.481,1.147,0.85c0.312,0.369,0.55,0.811,0.714,1.326c0.165,0.516,0.247,1.085,0.247,1.708v0.731H238.451z M242.327,31.1
			c-0.023-0.26-0.046-0.473-0.068-0.637c-0.022-0.165-0.079-0.343-0.17-0.536c-0.147-0.329-0.365-0.592-0.654-0.791
			s-0.638-0.297-1.046-0.297c-0.419,0-0.773,0.099-1.062,0.297s-0.507,0.462-0.654,0.791c-0.091,0.193-0.147,0.371-0.17,0.536
			c-0.023,0.164-0.04,0.377-0.051,0.637H242.327z"/>
		<path fill="#FFFFFF" d="M247.613,32.307c0,0.748,0.187,1.337,0.561,1.768s0.918,0.646,1.632,0.646
			c0.487,0,0.882-0.071,1.182-0.213s0.604-0.365,0.909-0.671l1.105,1.036c-0.227,0.228-0.45,0.423-0.672,0.587
			c-0.221,0.164-0.459,0.304-0.714,0.417s-0.532,0.198-0.833,0.255c-0.3,0.057-0.638,0.085-1.012,0.085
			c-0.544,0-1.051-0.077-1.521-0.229c-0.47-0.153-0.878-0.402-1.224-0.748s-0.62-0.802-0.824-1.369
			c-0.204-0.566-0.307-1.258-0.307-2.073c0-1.417,0.332-2.505,0.995-3.264s1.55-1.139,2.66-1.139c0.578,0,1.094,0.1,1.547,0.298
			s0.836,0.481,1.147,0.85c0.312,0.369,0.55,0.811,0.714,1.326c0.165,0.516,0.247,1.085,0.247,1.708v0.731H247.613z M251.489,31.1
			c-0.023-0.26-0.046-0.473-0.068-0.637c-0.022-0.165-0.079-0.343-0.17-0.536c-0.147-0.329-0.365-0.592-0.654-0.791
			s-0.638-0.297-1.046-0.297c-0.419,0-0.773,0.099-1.062,0.297s-0.507,0.462-0.654,0.791c-0.091,0.193-0.147,0.371-0.17,0.536
			c-0.023,0.164-0.04,0.377-0.051,0.637H251.489z"/>
		<path fill="#FFFFFF" d="M260.244,29.519c-0.193-0.192-0.383-0.337-0.569-0.433c-0.188-0.096-0.428-0.145-0.723-0.145
			c-0.477,0-0.882,0.173-1.216,0.519s-0.501,0.819-0.501,1.419v5.235h-1.734v-8.619h1.7v0.935c0.227-0.306,0.544-0.555,0.952-0.748
			c0.407-0.192,0.855-0.289,1.343-0.289c0.419,0,0.793,0.062,1.122,0.187c0.328,0.125,0.64,0.334,0.935,0.629L260.244,29.519z"/>
		<path fill="#FFFFFF" d="M262.913,25.796V23.96h1.836v1.836H262.913z M262.964,36.114v-8.619h1.734v8.619H262.964z"/>
		<path fill="#FFFFFF" d="M272.705,36.114v-5.252c0-0.668-0.167-1.156-0.501-1.462c-0.335-0.306-0.746-0.459-1.232-0.459
			c-0.488,0-0.907,0.156-1.259,0.467c-0.352,0.312-0.526,0.796-0.526,1.454v5.252h-1.734v-8.619h1.7v0.867
			c0.294-0.329,0.643-0.572,1.045-0.731s0.819-0.238,1.25-0.238c0.442,0,0.842,0.068,1.198,0.204
			c0.357,0.136,0.666,0.329,0.927,0.578c0.328,0.329,0.555,0.694,0.68,1.097s0.188,0.847,0.188,1.334v5.507H272.705z"/>
		<path fill="#FFFFFF" d="M283.687,36.063c0,0.532-0.085,1.021-0.255,1.462c-0.17,0.442-0.414,0.824-0.731,1.147
			s-0.702,0.575-1.155,0.757c-0.454,0.181-0.97,0.271-1.548,0.271c-0.657,0-1.215-0.085-1.674-0.255s-0.916-0.465-1.369-0.884
			l1.105-1.105c0.271,0.261,0.544,0.454,0.815,0.578c0.272,0.125,0.624,0.188,1.055,0.188c0.362,0,0.671-0.06,0.927-0.179
			c0.255-0.119,0.464-0.28,0.629-0.484c0.164-0.204,0.283-0.437,0.356-0.697c0.074-0.261,0.11-0.538,0.11-0.833v-1.104
			c-0.317,0.374-0.657,0.632-1.02,0.773c-0.363,0.142-0.766,0.212-1.207,0.212c-0.431,0-0.822-0.067-1.173-0.204
			c-0.352-0.136-0.646-0.322-0.884-0.561c-0.42-0.419-0.687-0.924-0.8-1.513c-0.113-0.59-0.17-1.253-0.17-1.989
			s0.057-1.399,0.17-1.989s0.38-1.094,0.8-1.513c0.498-0.499,1.189-0.748,2.073-0.748c0.465,0,0.876,0.071,1.232,0.213
			c0.357,0.142,0.7,0.411,1.029,0.807v-0.918h1.683V36.063z M281.952,31.644c0-0.34-0.017-0.671-0.051-0.994
			c-0.034-0.323-0.113-0.612-0.238-0.867c-0.124-0.255-0.303-0.459-0.535-0.612c-0.232-0.153-0.541-0.229-0.927-0.229
			c-0.396,0-0.711,0.076-0.943,0.229c-0.232,0.153-0.408,0.357-0.526,0.612c-0.119,0.255-0.199,0.544-0.238,0.867
			c-0.04,0.323-0.06,0.654-0.06,0.994s0.02,0.672,0.06,0.994c0.039,0.323,0.119,0.612,0.238,0.867
			c0.118,0.255,0.294,0.459,0.526,0.612c0.232,0.152,0.547,0.229,0.943,0.229c0.386,0,0.694-0.077,0.927-0.229
			c0.232-0.153,0.411-0.357,0.535-0.612c0.125-0.255,0.204-0.544,0.238-0.867C281.936,32.315,281.952,31.983,281.952,31.644z"/>
		<path fill="#FFFFFF" d="M106.668,55.114v-0.782c-0.317,0.318-0.646,0.545-0.986,0.681c-0.34,0.136-0.777,0.204-1.309,0.204
			c-0.544,0-1-0.065-1.369-0.195c-0.369-0.131-0.683-0.326-0.943-0.587c-0.454-0.476-0.68-1.094-0.68-1.854
			c0-0.725,0.249-1.319,0.748-1.784c0.499-0.465,1.247-0.697,2.244-0.697h2.261v-0.612c0-0.555-0.145-0.963-0.434-1.224
			c-0.289-0.261-0.773-0.392-1.453-0.392c-0.465,0-0.833,0.065-1.105,0.196c-0.272,0.13-0.533,0.348-0.782,0.654l-1.122-1.071
			c0.204-0.238,0.411-0.436,0.621-0.595c0.209-0.159,0.436-0.289,0.68-0.392c0.243-0.102,0.51-0.172,0.799-0.212
			s0.615-0.06,0.978-0.06c1.201,0,2.094,0.249,2.677,0.748c0.584,0.499,0.875,1.235,0.875,2.21v5.763H106.668z M106.634,51.307
			h-1.989c-1.054,0-1.581,0.414-1.581,1.241c0,0.396,0.127,0.699,0.382,0.909s0.671,0.314,1.25,0.314
			c0.306,0,0.586-0.028,0.842-0.085c0.255-0.057,0.496-0.192,0.722-0.408c0.25-0.238,0.374-0.663,0.374-1.274V51.307z"/>
		<path fill="#FFFFFF" d="M116.29,55.114v-5.253c0-0.668-0.167-1.156-0.501-1.462s-0.745-0.459-1.232-0.459
			s-0.907,0.156-1.258,0.468c-0.352,0.312-0.527,0.796-0.527,1.453v5.253h-1.734v-8.619h1.7v0.867
			c0.294-0.328,0.643-0.572,1.045-0.73c0.402-0.159,0.818-0.238,1.25-0.238c0.442,0,0.841,0.068,1.198,0.204
			c0.357,0.136,0.666,0.329,0.927,0.578c0.329,0.328,0.555,0.694,0.68,1.097c0.125,0.402,0.187,0.847,0.187,1.334v5.508H116.29z"/>
		<path fill="#FFFFFF" d="M125.641,55.114v-0.918c-0.329,0.397-0.672,0.666-1.029,0.808s-0.773,0.213-1.25,0.213
			c-0.431,0-0.83-0.068-1.198-0.204c-0.369-0.136-0.672-0.323-0.91-0.562c-0.419-0.431-0.686-0.969-0.799-1.614
			c-0.114-0.646-0.17-1.326-0.17-2.04c0-0.352,0.011-0.7,0.034-1.046c0.022-0.346,0.068-0.674,0.136-0.986
			c0.068-0.312,0.167-0.604,0.297-0.875c0.13-0.272,0.297-0.516,0.501-0.731c0.238-0.237,0.538-0.425,0.901-0.561
			s0.759-0.204,1.19-0.204c0.465,0,0.878,0.068,1.241,0.204s0.703,0.391,1.02,0.765v-4.352h1.734v12.104H125.641z M125.606,50.797
			c0-0.386-0.02-0.751-0.06-1.097c-0.04-0.346-0.122-0.648-0.247-0.91c-0.125-0.26-0.306-0.467-0.544-0.62
			c-0.238-0.153-0.55-0.229-0.935-0.229c-0.396,0-0.714,0.076-0.952,0.229c-0.238,0.153-0.419,0.36-0.544,0.62
			c-0.125,0.262-0.207,0.564-0.246,0.91c-0.04,0.346-0.06,0.711-0.06,1.097c0,0.385,0.02,0.751,0.06,1.096
			c0.04,0.347,0.122,0.652,0.246,0.918c0.125,0.267,0.306,0.477,0.544,0.63c0.238,0.152,0.555,0.229,0.952,0.229
			c0.385,0,0.697-0.077,0.935-0.229c0.238-0.153,0.419-0.363,0.544-0.63c0.125-0.266,0.207-0.571,0.247-0.918
			C125.586,51.548,125.606,51.182,125.606,50.797z"/>
		<path fill="#FFFFFF" d="M138.475,44.659v10.455h-1.836V44.659h-3.332v-1.648h8.5v1.648H138.475z"/>
		<path fill="#FFFFFF" d="M148.947,55.114v-5.253c0-0.668-0.167-1.156-0.501-1.462c-0.335-0.306-0.746-0.459-1.232-0.459
			c-0.488,0-0.907,0.156-1.259,0.468s-0.526,0.796-0.526,1.453v5.253h-1.734V43.011h1.734v4.352c0.294-0.328,0.634-0.572,1.02-0.73
			c0.386-0.159,0.799-0.238,1.241-0.238s0.842,0.068,1.198,0.204c0.357,0.136,0.666,0.329,0.927,0.578
			c0.328,0.328,0.555,0.694,0.68,1.097s0.188,0.847,0.188,1.334v5.508H148.947z"/>
		<path fill="#FFFFFF" d="M154.625,51.307c0,0.748,0.187,1.337,0.561,1.768s0.918,0.646,1.632,0.646
			c0.487,0,0.882-0.071,1.182-0.213s0.604-0.365,0.909-0.671l1.105,1.036c-0.227,0.228-0.45,0.423-0.672,0.587
			c-0.221,0.164-0.459,0.304-0.714,0.417s-0.532,0.198-0.833,0.255c-0.3,0.057-0.638,0.085-1.012,0.085
			c-0.544,0-1.051-0.077-1.521-0.229c-0.47-0.153-0.878-0.402-1.224-0.748s-0.62-0.802-0.824-1.369
			c-0.204-0.566-0.307-1.258-0.307-2.073c0-1.417,0.332-2.505,0.995-3.265c0.663-0.759,1.55-1.139,2.66-1.139
			c0.578,0,1.094,0.1,1.547,0.298s0.836,0.481,1.147,0.85s0.55,0.811,0.714,1.326c0.165,0.516,0.247,1.085,0.247,1.708v0.731
			H154.625z M158.501,50.1c-0.023-0.261-0.046-0.474-0.068-0.638s-0.079-0.343-0.17-0.535c-0.147-0.329-0.365-0.593-0.654-0.791
			s-0.638-0.297-1.046-0.297c-0.419,0-0.773,0.099-1.062,0.297s-0.507,0.462-0.654,0.791c-0.091,0.192-0.147,0.371-0.17,0.535
			c-0.023,0.164-0.04,0.377-0.051,0.638H158.501z"/>
		<path fill="#FFFFFF" d="M175.348,51.697c0,0.556-0.091,1.046-0.271,1.471c-0.182,0.425-0.434,0.782-0.757,1.071
			s-0.708,0.507-1.156,0.654c-0.447,0.147-0.938,0.221-1.471,0.221h-4.896V43.011h4.709c1.133,0,2.025,0.295,2.678,0.884
			c0.651,0.59,0.978,1.399,0.978,2.431c0,0.329-0.049,0.632-0.145,0.91c-0.097,0.277-0.222,0.526-0.374,0.748
			c-0.153,0.221-0.326,0.407-0.519,0.561c-0.193,0.153-0.392,0.27-0.595,0.349c0.237,0.091,0.464,0.219,0.68,0.383
			c0.215,0.164,0.408,0.359,0.578,0.586s0.306,0.493,0.407,0.799C175.297,50.967,175.348,51.312,175.348,51.697z M173.325,46.394
			c0-0.566-0.182-0.997-0.544-1.292c-0.363-0.295-0.839-0.442-1.429-0.442h-2.72v3.469h2.72c0.59,0,1.065-0.147,1.429-0.442
			C173.144,47.391,173.325,46.96,173.325,46.394z M173.512,51.612c0-0.544-0.17-0.985-0.51-1.326c-0.34-0.34-0.833-0.51-1.479-0.51
			h-2.89v3.689h2.89c0.646,0,1.14-0.173,1.479-0.519S173.512,52.156,173.512,51.612z"/>
		<path fill="#FFFFFF" d="M183.065,55.114v-0.867c-0.295,0.329-0.644,0.573-1.046,0.731s-0.818,0.238-1.249,0.238
			c-0.442,0-0.842-0.068-1.198-0.204c-0.357-0.136-0.666-0.329-0.927-0.578c-0.329-0.329-0.556-0.694-0.681-1.097
			c-0.124-0.402-0.187-0.847-0.187-1.334v-5.509h1.734v5.253c0,0.669,0.167,1.156,0.501,1.463c0.334,0.306,0.745,0.459,1.232,0.459
			c0.238,0,0.468-0.037,0.688-0.111c0.222-0.073,0.411-0.189,0.569-0.348c0.159-0.159,0.286-0.36,0.383-0.604
			c0.097-0.244,0.145-0.53,0.145-0.859v-5.253h1.734v8.619H183.065z"/>
		<path fill="#FFFFFF" d="M187.469,44.796V42.96h1.836v1.836H187.469z M187.52,55.114v-8.619h1.734v8.619H187.52z"/>
		<path fill="#FFFFFF" d="M194.319,55.114c-0.408,0-0.763-0.064-1.062-0.195c-0.301-0.13-0.548-0.303-0.74-0.519
			c-0.192-0.215-0.334-0.468-0.425-0.757c-0.091-0.288-0.136-0.592-0.136-0.909v-9.724h1.733v9.622c0,0.328,0.068,0.578,0.204,0.748
			c0.137,0.17,0.38,0.255,0.731,0.255h0.765v1.479H194.319z"/>
		<path fill="#FFFFFF" d="M199.861,55.114c-0.408,0-0.76-0.067-1.055-0.204c-0.295-0.136-0.538-0.314-0.73-0.535
			c-0.193-0.221-0.338-0.476-0.434-0.765c-0.097-0.289-0.145-0.587-0.145-0.893v-4.896h-0.986v-1.326h0.986V44.03h1.734v2.465h1.666
			v1.326h-1.666v4.812c0,0.317,0.076,0.563,0.229,0.739c0.152,0.176,0.394,0.264,0.722,0.264h0.715v1.479H199.861z"/>
		<path fill="#FFFFFF" d="M207.392,55.114V43.011h7.735v1.648h-5.899v3.536h5.032v1.632h-5.032v3.639h5.899v1.648H207.392z"/>
		<path fill="#FFFFFF" d="M222.691,55.114v-5.253c0-0.668-0.167-1.156-0.501-1.462c-0.335-0.306-0.746-0.459-1.232-0.459
			c-0.488,0-0.907,0.156-1.259,0.468s-0.526,0.796-0.526,1.453v5.253h-1.734v-8.619h1.7v0.867c0.294-0.328,0.643-0.572,1.045-0.73
			c0.402-0.159,0.819-0.238,1.25-0.238c0.442,0,0.842,0.068,1.198,0.204c0.357,0.136,0.666,0.329,0.927,0.578
			c0.328,0.328,0.555,0.694,0.68,1.097s0.188,0.847,0.188,1.334v5.508H222.691z"/>
		<path fill="#FFFFFF" d="M230.427,55.114h-1.411l-3.162-8.619h1.836l2.04,6.069l2.023-6.069h1.836L230.427,55.114z"/>
		<path fill="#FFFFFF" d="M235.051,44.796V42.96h1.836v1.836H235.051z M235.102,55.114v-8.619h1.734v8.619H235.102z"/>
		<path fill="#FFFFFF" d="M244.332,48.519c-0.193-0.192-0.383-0.337-0.569-0.434c-0.188-0.096-0.428-0.145-0.723-0.145
			c-0.477,0-0.882,0.173-1.216,0.519s-0.501,0.819-0.501,1.42v5.235h-1.734v-8.619h1.7v0.936c0.227-0.307,0.544-0.556,0.952-0.748
			c0.407-0.192,0.855-0.289,1.343-0.289c0.419,0,0.793,0.062,1.122,0.187c0.328,0.125,0.64,0.335,0.935,0.63L244.332,48.519z"/>
		<path fill="#FFFFFF" d="M253.325,50.797c0,0.736-0.068,1.38-0.204,1.929c-0.136,0.55-0.408,1.04-0.816,1.471
			c-0.283,0.295-0.637,0.539-1.062,0.731c-0.425,0.192-0.932,0.289-1.521,0.289c-0.589,0-1.094-0.097-1.513-0.289
			s-0.771-0.437-1.054-0.731c-0.408-0.431-0.681-0.921-0.816-1.471c-0.136-0.549-0.204-1.192-0.204-1.929
			c0-0.726,0.068-1.363,0.204-1.913s0.408-1.039,0.816-1.471c0.283-0.294,0.635-0.538,1.054-0.73s0.924-0.289,1.513-0.289
			c0.59,0,1.097,0.097,1.521,0.289c0.426,0.192,0.779,0.437,1.062,0.73c0.408,0.432,0.681,0.921,0.816,1.471
			S253.325,50.071,253.325,50.797z M251.591,50.797c0-0.477-0.034-0.924-0.102-1.344c-0.068-0.419-0.232-0.759-0.493-1.02
			c-0.329-0.329-0.754-0.493-1.275-0.493c-0.51,0-0.929,0.164-1.258,0.493c-0.261,0.261-0.425,0.601-0.493,1.02
			c-0.067,0.42-0.102,0.867-0.102,1.344c0,0.476,0.034,0.924,0.102,1.343c0.068,0.419,0.232,0.759,0.493,1.02
			c0.34,0.34,0.76,0.511,1.258,0.511c0.511,0,0.936-0.171,1.275-0.511c0.261-0.261,0.425-0.601,0.493-1.02
			C251.557,51.721,251.591,51.272,251.591,50.797z"/>
		<path fill="#FFFFFF" d="M260.924,55.114v-5.253c0-0.668-0.167-1.156-0.501-1.462c-0.335-0.306-0.746-0.459-1.232-0.459
			c-0.488,0-0.907,0.156-1.259,0.468s-0.526,0.796-0.526,1.453v5.253h-1.734v-8.619h1.7v0.867c0.294-0.328,0.643-0.572,1.045-0.73
			c0.402-0.159,0.819-0.238,1.25-0.238c0.442,0,0.842,0.068,1.198,0.204c0.357,0.136,0.666,0.329,0.927,0.578
			c0.328,0.328,0.555,0.694,0.68,1.097s0.188,0.847,0.188,1.334v5.508H260.924z"/>
		<path fill="#FFFFFF" d="M275.833,55.114v-5.253c0-0.668-0.167-1.156-0.501-1.462c-0.335-0.306-0.746-0.459-1.232-0.459
			c-0.238,0-0.465,0.037-0.681,0.11c-0.215,0.074-0.405,0.188-0.569,0.34c-0.164,0.153-0.295,0.347-0.391,0.578
			c-0.097,0.232-0.145,0.502-0.145,0.808v5.338h-1.734v-5.253c0-0.668-0.167-1.156-0.501-1.462
			c-0.335-0.306-0.746-0.459-1.232-0.459c-0.488,0-0.907,0.156-1.259,0.468s-0.526,0.796-0.526,1.453v5.253h-1.734v-8.619h1.7v0.867
			c0.294-0.317,0.643-0.558,1.045-0.723c0.402-0.164,0.819-0.246,1.25-0.246c1.088,0,1.904,0.419,2.448,1.258
			c0.69-0.839,1.592-1.258,2.703-1.258c0.441,0,0.85,0.068,1.224,0.204s0.691,0.329,0.952,0.578
			c0.328,0.328,0.563,0.694,0.705,1.097s0.213,0.847,0.213,1.334v5.508H275.833z"/>
		<path fill="#FFFFFF" d="M281.511,51.307c0,0.748,0.187,1.337,0.561,1.768s0.918,0.646,1.632,0.646
			c0.487,0,0.882-0.071,1.182-0.213s0.604-0.365,0.909-0.671l1.105,1.036c-0.227,0.228-0.45,0.423-0.672,0.587
			c-0.221,0.164-0.459,0.304-0.714,0.417s-0.532,0.198-0.833,0.255c-0.3,0.057-0.638,0.085-1.012,0.085
			c-0.544,0-1.051-0.077-1.521-0.229c-0.47-0.153-0.878-0.402-1.224-0.748s-0.62-0.802-0.824-1.369
			c-0.204-0.566-0.307-1.258-0.307-2.073c0-1.417,0.332-2.505,0.995-3.265c0.663-0.759,1.55-1.139,2.66-1.139
			c0.578,0,1.094,0.1,1.547,0.298s0.836,0.481,1.147,0.85s0.55,0.811,0.714,1.326c0.165,0.516,0.247,1.085,0.247,1.708v0.731
			H281.511z M285.387,50.1c-0.023-0.261-0.046-0.474-0.068-0.638s-0.079-0.343-0.17-0.535c-0.147-0.329-0.365-0.593-0.654-0.791
			s-0.638-0.297-1.046-0.297c-0.419,0-0.773,0.099-1.062,0.297s-0.507,0.462-0.654,0.791c-0.091,0.192-0.147,0.371-0.17,0.535
			c-0.023,0.164-0.04,0.377-0.051,0.638H285.387z"/>
		<path fill="#FFFFFF" d="M294.651,55.114v-5.253c0-0.668-0.167-1.156-0.501-1.462c-0.335-0.306-0.746-0.459-1.232-0.459
			c-0.488,0-0.907,0.156-1.259,0.468s-0.526,0.796-0.526,1.453v5.253h-1.734v-8.619h1.7v0.867c0.294-0.328,0.643-0.572,1.045-0.73
			c0.402-0.159,0.819-0.238,1.25-0.238c0.442,0,0.842,0.068,1.198,0.204c0.357,0.136,0.666,0.329,0.927,0.578
			c0.328,0.328,0.555,0.694,0.68,1.097s0.188,0.847,0.188,1.334v5.508H294.651z"/>
		<path fill="#FFFFFF" d="M301.622,55.114c-0.408,0-0.76-0.067-1.055-0.204c-0.295-0.136-0.538-0.314-0.73-0.535
			c-0.193-0.221-0.338-0.476-0.434-0.765c-0.097-0.289-0.145-0.587-0.145-0.893v-4.896h-0.986v-1.326h0.986V44.03h1.734v2.465h1.666
			v1.326h-1.666v4.812c0,0.317,0.076,0.563,0.229,0.739c0.152,0.176,0.394,0.264,0.722,0.264h0.715v1.479H301.622z"/>
	</g>
</g>
</svg>
